<?xml version="1.0" encoding="UTF-8"?>
<svg width="195px" height="161px" viewBox="0 0 195 161" version="1.1" xmlns="http://www.w3.org/2000/svg" xmlns:xlink="http://www.w3.org/1999/xlink">
    <title>logo</title>
    <defs>
        <path d="M12.1740217,12.1327538 C11.4862238,12.1327538 10.8328159,12.2428014 10.2137978,12.4628968 C9.59477978,12.6829921 9.05829747,13.006257 8.6043509,13.4326917 C8.15040433,13.8591264 7.78587148,14.3887307 7.51075235,15.0215047 C7.23563321,15.6542787 7.09807365,16.3971004 7.09807365,17.2499697 C7.09807365,18.9557083 7.58641011,20.2350123 8.56308303,21.0878816 C9.53975596,21.9407509 10.7296462,22.3671856 12.1327538,22.3671856 C12.9581112,22.3671856 13.6734209,22.2708939 14.278683,22.0783105 C14.8839451,21.8857271 15.4204274,21.6793877 15.88813,21.4592924 C16.4383682,21.8444592 16.8510469,22.2640159 17.1261661,22.7179625 C17.4012852,23.171909 17.5388448,23.7152693 17.5388448,24.3480433 C17.5388448,25.4760318 17.0023625,26.349535 15.9293978,26.9685531 C14.8564332,27.5875711 13.3707899,27.8970801 11.4724679,27.8970801 C9.73921733,27.8970801 8.17103827,27.6425949 6.76793069,27.1336245 C5.3648231,26.6246542 4.1611769,25.9093444 3.15699206,24.9876953 C2.15280722,24.0660462 1.37559567,22.9586917 0.825357401,21.6656318 C0.275119134,20.3725718 0,18.9419523 0,17.3737733 C0,15.557987 0.295753069,13.969174 0.887259206,12.6073343 C1.47876534,11.2454946 2.28348881,10.1243841 3.3014296,9.24400289 C4.3193704,8.36362166 5.49550469,7.70333574 6.82983249,7.26314513 C8.16416029,6.82295451 9.57414585,6.60285921 11.0597892,6.60285921 C13.0406469,6.60285921 14.5675581,6.96051408 15.6405227,7.67582383 C16.7134874,8.39113357 17.2499697,9.31278267 17.2499697,10.4407711 C17.2499697,10.9634975 17.1261661,11.4518339 16.8785588,11.9057805 C16.6309516,12.3597271 16.3420765,12.7517718 16.0119336,13.0819148 C15.544231,12.8618195 14.9802368,12.6486022 14.3199509,12.4422628 C13.659665,12.2359235 12.9443552,12.1327538 12.1740217,12.1327538 Z" id="path-1"></path>
        <path d="M29.6303307,22.8211321 C30.0980332,22.8211321 30.6138816,22.7729863 31.1778758,22.6766946 C31.74187,22.5804029 32.1614267,22.4497213 32.4365458,22.2846498 L32.4365458,18.9832202 L29.4652592,19.2308274 C28.6949256,19.2858513 28.0621516,19.4509227 27.5669372,19.7260419 C27.0717227,20.001161 26.8241155,20.4138397 26.8241155,20.964078 C26.8241155,21.5143162 27.0373329,21.9613848 27.4637675,22.3052838 C27.8902022,22.6491827 28.6123899,22.8211321 29.6303307,22.8211321 Z M29.3001877,6.60285921 C30.785831,6.60285921 32.1407928,6.75417473 33.3650729,7.05680578 C34.5893531,7.35943682 35.6348058,7.82026137 36.501431,8.43927942 C37.3680563,9.05829747 38.0352202,9.842387 38.5029227,10.791548 C38.9706253,11.740709 39.2044765,12.8618195 39.2044765,14.1548794 L39.2044765,23.3988823 C39.2044765,24.1141921 39.0050152,24.6988202 38.6060924,25.1527668 C38.2071697,25.6067134 37.7325892,25.9987581 37.1823509,26.3289011 C35.3940765,27.4018657 32.8767365,27.938348 29.6303307,27.938348 C28.1721993,27.938348 26.8585054,27.8007884 25.6892491,27.5256693 C24.5199928,27.2505502 23.5158079,26.8378715 22.6766946,26.2876332 C21.8375812,25.7373949 21.1910513,25.0358412 20.7371047,24.1829718 C20.2831581,23.3301025 20.0561848,22.3396736 20.0561848,21.2116852 C20.0561848,19.3133632 20.6201791,17.8552318 21.7481675,16.837291 C22.876156,15.8193502 24.6231625,15.1865762 26.989187,14.938969 L32.395278,14.3612188 L32.395278,14.0723437 C32.395278,13.2744982 32.0445011,12.703626 31.3429473,12.3597271 C30.6413935,12.0158282 29.6303307,11.8438787 28.3097588,11.8438787 C27.2643061,11.8438787 26.2463653,11.9539264 25.2559365,12.1740217 C24.2655076,12.394117 23.3713704,12.6692361 22.5735249,12.9993791 C22.21587,12.7517718 21.913239,12.373483 21.6656318,11.8645126 C21.4180245,11.3555422 21.2942209,10.8259379 21.2942209,10.2756996 C21.2942209,9.56038989 21.4661704,8.98951769 21.8100693,8.56308303 C22.1539682,8.13664838 22.6835726,7.77211552 23.3988823,7.46948448 C24.1967278,7.16685343 25.1390108,6.94675812 26.2257314,6.80919856 C27.312452,6.67163899 28.3372708,6.60285921 29.3001877,6.60285921 Z" id="path-2"></path>
        <path d="M50.5118729,20.3863278 C50.5118729,21.1016375 50.7388462,21.6106079 51.1927928,21.913239 C51.6467393,22.21587 52.2863913,22.3671856 53.1117487,22.3671856 C53.5244274,22.3671856 53.9508621,22.3327957 54.3910527,22.2640159 C54.8312433,22.1952361 55.2164101,22.1058224 55.5465531,21.9957747 C55.7941603,22.2984058 56.0073776,22.6354267 56.1862051,23.0068375 C56.3650325,23.3782484 56.4544462,23.825317 56.4544462,24.3480433 C56.4544462,25.393496 56.0624014,26.2463653 55.2783119,26.9066513 C54.4942224,27.5669372 53.1117487,27.8970801 51.130891,27.8970801 C48.7098426,27.8970801 46.8459105,27.3468419 45.5390946,26.2463653 C44.2322787,25.1458888 43.5788708,23.3576144 43.5788708,20.8815422 L43.5788708,3.21889386 C43.8815018,3.13635812 44.3148144,3.0469444 44.8788087,2.95065271 C45.4428029,2.85436101 46.041187,2.80621516 46.673961,2.80621516 C47.8844852,2.80621516 48.8267682,3.01943249 49.5008101,3.44586715 C50.174852,3.8723018 50.5118729,4.77331697 50.5118729,6.14891264 L50.5118729,8.79005632 L55.9179639,8.79005632 C56.0830354,9.09268736 56.2412289,9.47097617 56.3925444,9.92492274 C56.5438599,10.3788693 56.6195177,10.8809617 56.6195177,11.4312 C56.6195177,12.394117 56.4063004,13.0887928 55.9798657,13.5152274 C55.553431,13.9416621 54.9825588,14.1548794 54.2672491,14.1548794 L50.5118729,14.1548794 L50.5118729,20.3863278 Z" id="path-3"></path>
        <path d="M68.5872,22.8211321 C69.0549025,22.8211321 69.5707509,22.7729863 70.1347451,22.6766946 C70.6987393,22.5804029 71.118296,22.4497213 71.3934152,22.2846498 L71.3934152,18.9832202 L68.4221285,19.2308274 C67.6517949,19.2858513 67.0190209,19.4509227 66.5238065,19.7260419 C66.0285921,20.001161 65.7809848,20.4138397 65.7809848,20.964078 C65.7809848,21.5143162 65.9942022,21.9613848 66.4206368,22.3052838 C66.8470715,22.6491827 67.5692592,22.8211321 68.5872,22.8211321 Z M68.257057,6.60285921 C69.7427004,6.60285921 71.0976621,6.75417473 72.3219422,7.05680578 C73.5462224,7.35943682 74.5916751,7.82026137 75.4583004,8.43927942 C76.3249256,9.05829747 76.9920895,9.842387 77.4597921,10.791548 C77.9274946,11.740709 78.1613458,12.8618195 78.1613458,14.1548794 L78.1613458,23.3988823 C78.1613458,24.1141921 77.9618845,24.6988202 77.5629617,25.1527668 C77.164039,25.6067134 76.6894585,25.9987581 76.1392202,26.3289011 C74.3509458,27.4018657 71.8336058,27.938348 68.5872,27.938348 C67.1290686,27.938348 65.8153747,27.8007884 64.6461184,27.5256693 C63.4768621,27.2505502 62.4726773,26.8378715 61.6335639,26.2876332 C60.7944505,25.7373949 60.1479206,25.0358412 59.693974,24.1829718 C59.2400274,23.3301025 59.0130541,22.3396736 59.0130541,21.2116852 C59.0130541,19.3133632 59.5770484,17.8552318 60.7050368,16.837291 C61.8330253,15.8193502 63.5800318,15.1865762 65.9460563,14.938969 L71.3521473,14.3612188 L71.3521473,14.0723437 C71.3521473,13.2744982 71.0013704,12.703626 70.2998166,12.3597271 C69.5982628,12.0158282 68.5872,11.8438787 67.2666282,11.8438787 C66.2211754,11.8438787 65.2032347,11.9539264 64.2128058,12.1740217 C63.2223769,12.394117 62.3282397,12.6692361 61.5303942,12.9993791 C61.1727393,12.7517718 60.8701083,12.373483 60.6225011,11.8645126 C60.3748939,11.3555422 60.2510902,10.8259379 60.2510902,10.2756996 C60.2510902,9.56038989 60.4230397,8.98951769 60.7669386,8.56308303 C61.1108375,8.13664838 61.6404419,7.77211552 62.3557516,7.46948448 C63.1535971,7.16685343 64.0958801,6.94675812 65.1826007,6.80919856 C66.2693213,6.67163899 67.2941401,6.60285921 68.257057,6.60285921 Z" id="path-4"></path>
        <path d="M89.5925458,27.2367942 C89.2899148,27.291818 88.8428462,27.3674758 88.2513401,27.4637675 C87.6598339,27.5600592 87.0614498,27.6082051 86.4561877,27.6082051 C85.8509256,27.6082051 85.3075653,27.5669372 84.8261069,27.4844014 C84.3446484,27.4018657 83.9388476,27.2367942 83.6087047,26.989187 C83.2785617,26.7415798 83.0240765,26.4045588 82.8452491,25.9781242 C82.6664217,25.5516895 82.5770079,24.9945733 82.5770079,24.3067755 L82.5770079,0.37141083 C82.879639,0.316387004 83.3267076,0.240729242 83.9182137,0.144437545 C84.5097199,0.0481458484 85.108104,0 85.7133661,0 C86.3186282,0 86.8619884,0.04126787 87.3434469,0.12380361 C87.8249054,0.20633935 88.2307061,0.37141083 88.5608491,0.619018051 C88.8909921,0.866625271 89.1454773,1.20364621 89.3243047,1.63008087 C89.5031321,2.05651552 89.5925458,2.61363177 89.5925458,3.3014296 L89.5925458,27.2367942 Z" id="path-5"></path>
        <path d="M114.765947,17.2499697 C114.765947,18.9557083 114.504583,20.4757415 113.981857,21.8100693 C113.459131,23.1443971 112.723187,24.2655076 111.774026,25.1734007 C110.824865,26.0812939 109.689999,26.7690917 108.369427,27.2367942 C107.048855,27.7044967 105.576968,27.938348 103.953765,27.938348 C102.330562,27.938348 100.858674,27.6907408 99.5381025,27.1955264 C98.2175307,26.7003119 97.0826643,25.9918801 96.1335032,25.070231 C95.1843422,24.1485819 94.4483986,23.0274715 93.9256722,21.7068996 C93.4029458,20.3863278 93.1415827,18.9006845 93.1415827,17.2499697 C93.1415827,15.6267668 93.4029458,14.1548794 93.9256722,12.8343076 C94.4483986,11.5137357 95.1843422,10.3926253 96.1335032,9.47097617 C97.0826643,8.54932708 98.2175307,7.84089531 99.5381025,7.34568087 C100.858674,6.85046643 102.330562,6.60285921 103.953765,6.60285921 C105.576968,6.60285921 107.048855,6.8573444 108.369427,7.3663148 C109.689999,7.8752852 110.824865,8.59059495 111.774026,9.51224404 C112.723187,10.4338931 113.459131,11.5550036 113.981857,12.8755755 C114.504583,14.1961473 114.765947,15.6542787 114.765947,17.2499697 Z M100.322192,17.2499697 C100.322192,18.9281964 100.645457,20.2143783 101.291987,21.1085155 C101.938517,22.0026527 102.839532,22.4497213 103.995032,22.4497213 C105.150533,22.4497213 106.037792,21.9957747 106.65681,21.0878816 C107.275828,20.1799884 107.585337,18.9006845 107.585337,17.2499697 C107.585337,15.5992549 107.26895,14.3268289 106.636176,13.4326917 C106.003402,12.5385545 105.109265,12.0914859 103.953765,12.0914859 C102.798264,12.0914859 101.904127,12.5385545 101.271353,13.4326917 C100.638579,14.3268289 100.322192,15.5992549 100.322192,17.2499697 Z" id="path-6"></path>
        <path d="M127.971665,6.60285921 C129.539844,6.60285921 130.963586,6.80232058 132.24289,7.20124332 C133.522193,7.60016606 134.602036,8.11601444 135.482417,8.74878845 C136.032656,9.13395523 136.465968,9.56038989 136.782355,10.0280924 C137.098742,10.4957949 137.256936,11.101057 137.256936,11.8438787 L137.256936,26.2876332 C137.256936,27.7457646 136.981817,29.0044347 136.431578,30.0636433 C135.88134,31.122852 135.13164,32.0032332 134.182479,32.704787 C133.233318,33.4063408 132.119086,33.9221892 130.839782,34.2523321 C129.560478,34.5824751 128.19176,34.7475466 126.733629,34.7475466 C124.230045,34.7475466 122.262943,34.4105256 120.832323,33.7364838 C119.401704,33.0624419 118.686394,31.9688433 118.686394,30.4556881 C118.686394,29.8229141 118.817076,29.2657978 119.078439,28.7843393 C119.339802,28.3028809 119.635555,27.938348 119.965698,27.6907408 C120.763544,28.1309314 121.664559,28.5023422 122.668744,28.8049733 C123.672929,29.1076043 124.711503,29.2589199 125.784468,29.2589199 C127.270111,29.2589199 128.453123,29.0113126 129.333505,28.5160982 C130.213886,28.0208838 130.654077,27.2230383 130.654077,26.1225617 L130.654077,25.4622758 C129.526088,25.9574903 128.150492,26.2050975 126.52729,26.2050975 C125.289253,26.2050975 124.113119,26.0193921 122.998887,25.6479812 C121.884654,25.2765704 120.907981,24.6988202 120.068868,23.9147307 C119.229755,23.1306412 118.555713,22.1195783 118.046742,20.8815422 C117.537772,19.6435061 117.283287,18.1716188 117.283287,16.4658801 C117.283287,14.7876534 117.551528,13.329522 118.08801,12.0914859 C118.624492,10.8534498 119.367314,9.82863105 120.316475,9.0170296 C121.265636,8.20542816 122.393625,7.60016606 123.70044,7.20124332 C125.007256,6.80232058 126.430998,6.60285921 127.971665,6.60285921 Z M130.530273,12.5867004 C130.33769,12.4766527 130.055692,12.3666051 129.684282,12.2565574 C129.312871,12.1465097 128.852046,12.0914859 128.301808,12.0914859 C126.953724,12.0914859 125.942661,12.4697747 125.268619,13.2263523 C124.594578,13.98293 124.257557,15.0627726 124.257557,16.4658801 C124.257557,18.0615711 124.594578,19.2101935 125.268619,19.9117473 C125.942661,20.6133011 126.802409,20.964078 127.847861,20.964078 C128.97585,20.964078 129.869987,20.7027148 130.530273,20.1799884 L130.530273,12.5867004 Z" id="path-7"></path>
    </defs>
    <g id="group" stroke="none" stroke-width="1" fill="none" fill-rule="evenodd">
        <g id="logo" transform="translate(0.3118, 0.7628)" fill-rule="nonzero">
            <polygon id="poly8" fill="#F9AD00" transform="translate(24.9778, 134.8802) rotate(-180) translate(-24.9778, -134.8802)" points="49.9556362 159.858036 -4.54747351e-13 159.858036 -4.54747351e-13 109.9024 49.9556362 109.9024"></polygon>
            <polygon id="poly7" fill="#F9AD00" transform="translate(79.929, 134.8802) rotate(-180) translate(-79.929, -134.8802)" points="104.906836 159.858036 54.9511999 159.858036 54.9511999 109.9024 104.906836 109.9024"></polygon>
            <polygon id="poly6" fill="#F9AD00" transform="translate(134.8802, 134.8802) rotate(-180) translate(-134.8802, -134.8802)" points="159.858036 159.858036 109.9024 159.858036 109.9024 109.9024 159.858036 109.9024"></polygon>
            <polygon id="poly5" fill="#F9AD00" transform="translate(24.9778, 79.929) rotate(-180) translate(-24.9778, -79.929)" points="49.9556362 104.906836 -4.54747351e-13 104.906836 -4.54747351e-13 54.9511999 49.9556362 54.9511999"></polygon>
            <polygon id="poly3" fill="#FFFFFF" transform="translate(79.929, 24.9778) rotate(-180) translate(-79.929, -24.9778)" points="104.906836 49.9556362 54.9511999 49.9556362 54.9511999 0 104.906836 0"></polygon>
            <polygon id="poly2" fill="#FFFFFF" transform="translate(24.9778, 24.9778) rotate(-180) translate(-24.9778, -24.9778)" points="49.9556362 49.9556362 -4.54747351e-13 49.9556362 -4.54747351e-13 0 49.9556362 0"></polygon>
            <polygon id="poly1" fill="#FFFFFF" transform="translate(134.8802, 24.9778) rotate(-180) translate(-134.8802, -24.9778)" points="159.858036 49.9556362 109.9024 49.9556362 109.9024 0 159.858036 0"></polygon>
            <g id="catalog" transform="translate(56.6142, 63.2849)" fill="#FFFFFF">
                <g id="路径">
                    <use xlink:href="#path-1"></use>
                    <use xlink:href="#path-1"></use>
                </g>
                <g id="形状">
                    <use xlink:href="#path-2"></use>
                    <use xlink:href="#path-2"></use>
                </g>
                <g id="路径">
                    <use xlink:href="#path-3"></use>
                    <use xlink:href="#path-3"></use>
                </g>
                <g id="形状">
                    <use xlink:href="#path-4"></use>
                    <use xlink:href="#path-4"></use>
                </g>
                <g id="路径">
                    <use xlink:href="#path-5"></use>
                    <use xlink:href="#path-5"></use>
                </g>
                <g id="形状">
                    <use xlink:href="#path-6"></use>
                    <use xlink:href="#path-6"></use>
                </g>
                <g id="形状">
                    <use xlink:href="#path-7"></use>
                    <use xlink:href="#path-7"></use>
                </g>
            </g>
        </g>
    </g>
</svg>